<?xml version="1.0" encoding="UTF-8" standalone="no"?>
<!-- Generator: Adobe Illustrator 16.0.4, SVG Export Plug-In . SVG Version: 6.00 Build 0)  -->

<svg
   xmlns:dc="http://purl.org/dc/elements/1.1/"
   xmlns:cc="http://creativecommons.org/ns#"
   xmlns:rdf="http://www.w3.org/1999/02/22-rdf-syntax-ns#"
   xmlns:svg="http://www.w3.org/2000/svg"
   xmlns="http://www.w3.org/2000/svg"
   xmlns:sodipodi="http://sodipodi.sourceforge.net/DTD/sodipodi-0.dtd"
   xmlns:inkscape="http://www.inkscape.org/namespaces/inkscape"
   version="1.1"
   id="Calque_1"
   x="0px"
   y="0px"
   width="460px"
   height="491px"
   viewBox="66.14 99.445 460 491"
   enable-background="new 66.14 99.445 460 491"
   xml:space="preserve"
   sodipodi:docname="database.svg"
   inkscape:version="0.92.3 (2405546, 2018-03-11)"><metadata
   id="metadata15"><rdf:RDF><cc:Work
       rdf:about=""><dc:format>image/svg+xml</dc:format><dc:type
         rdf:resource="http://purl.org/dc/dcmitype/StillImage" /></cc:Work></rdf:RDF></metadata><defs
   id="defs13" /><sodipodi:namedview
   pagecolor="#ffffff"
   bordercolor="#666666"
   borderopacity="1"
   objecttolerance="10"
   gridtolerance="10"
   guidetolerance="10"
   inkscape:pageopacity="0"
   inkscape:pageshadow="2"
   inkscape:window-width="836"
   inkscape:window-height="480"
   id="namedview11"
   showgrid="false"
   inkscape:zoom="0.48065173"
   inkscape:cx="230"
   inkscape:cy="245.5"
   inkscape:window-x="0"
   inkscape:window-y="24"
   inkscape:window-maximized="0"
   inkscape:current-layer="Calque_1" />
<g
   transform="matrix(0.69044213,0,0,0.74011455,92.136804,-614.79749)"
   id="g4">
	<path
   d="m 505.985,1173.889 c 0,-32.937 -26.491,-59.858 -64.178,-78.13 -37.687,-18.273 -88.361,-29.02 -144.167,-29.02 -55.806,0 -106.479,10.747 -144.17,29.02 -37.688,18.272 -64.178,45.193 -64.178,78.13 0.06,82.118 0,166.926 0,250.018 0,32.937 26.491,59.671 64.178,77.944 37.689,18.273 88.364,29.206 144.17,29.206 55.806,0 106.48,-10.933 144.17,-29.206 37.687,-18.272 64.178,-45.008 64.178,-77.943 M 297.64,1090.549 c 52.687,0 100.342,10.402 133.752,26.601 33.409,16.199 50.785,37.072 50.785,56.738 0,19.666 -17.376,40.353 -50.785,56.552 -33.41,16.199 -81.065,26.788 -133.752,26.788 -52.686,0 -100.342,-10.589 -133.752,-26.788 -33.41,-16.199 -50.785,-36.886 -50.785,-56.552 0,-19.666 17.375,-40.54 50.785,-56.738 33.41,-16.198 81.066,-26.601 133.752,-26.601 z m -184.537,133.938 c 10.749,10.503 24.525,19.665 40.367,27.345 37.689,18.273 88.364,29.207 144.17,29.207 55.806,0 106.48,-10.933 144.17,-29.207 15.842,-7.681 29.618,-16.842 40.367,-27.345 0,10.914 0,21.827 0,32.741 0,19.666 -17.376,40.353 -50.785,56.551 -33.41,16.199 -81.065,26.788 -133.752,26.788 -52.686,0 -100.342,-10.589 -133.752,-26.788 -33.41,-16.199 -50.785,-36.886 -50.785,-56.551 0,-10.914 0,-21.827 0,-32.741 z m 0,83.34 c 10.749,10.503 24.525,19.665 40.367,27.345 37.689,18.273 88.364,29.207 144.17,29.207 55.806,0 106.48,-10.933 144.17,-29.207 15.842,-7.681 29.618,-16.842 40.367,-27.345 0,10.914 0,21.827 0,32.74 0,19.666 -17.376,40.353 -50.785,56.551 -33.41,16.199 -81.065,26.788 -133.752,26.788 -52.686,0 -100.342,-10.589 -133.752,-26.788 -33.41,-16.198 -50.785,-36.885 -50.785,-56.551 0,-10.913 0,-21.827 0,-32.74 z m 0,83.339 c 10.749,10.503 24.525,19.665 40.367,27.345 37.689,18.273 88.364,29.207 144.17,29.207 55.806,0 106.48,-10.933 144.17,-29.207 15.842,-7.68 29.618,-16.842 40.367,-27.345 v 32.74 c 0,19.665 -17.376,40.353 -50.785,56.552 -33.41,16.199 -81.065,26.787 -133.752,26.787 -52.686,0 -100.342,-10.588 -133.752,-26.787 -33.409,-16.199 -50.785,-36.887 -50.785,-56.552 v -32.74 z"
   id="path2"
   inkscape:connector-curvature="0" />
</g>
<text
   transform="matrix(1 0 0 1 2.441406e-04 733.4688)"
   font-family="'HelveticaNeue-Bold'"
   font-size="29.764"
   id="text6">Created by Aybige</text>

<text
   transform="matrix(1 0 0 1 2.441406e-04 763.2305)"
   font-family="'HelveticaNeue-Bold'"
   font-size="29.764"
   id="text8">from the Noun Project</text>

</svg>